<mxfile host="app.diagrams.net" modified="2023-08-29T09:43:21.501Z" agent="Mozilla/5.0 (Macintosh; Intel Mac OS X 10_15_7) AppleWebKit/537.36 (KHTML, like Gecko) Chrome/116.0.0.0 Safari/537.36" etag="BcqZfH3dmeZTbsklA1e7" version="21.6.5" type="device">
  <diagram name="Page-1" id="mQgvqP_B-0fi5qZbxUTK">
    <mxGraphModel dx="3180" dy="3199" grid="1" gridSize="10" guides="1" tooltips="1" connect="1" arrows="1" fold="1" page="1" pageScale="1" pageWidth="827" pageHeight="1169" math="0" shadow="0">
      <root>
        <mxCell id="0" />
        <mxCell id="1" parent="0" />
        <mxCell id="pdynEuTbUN3bziA-fhCv-1" value="" style="rounded=0;whiteSpace=wrap;html=1;" parent="1" vertex="1">
          <mxGeometry x="140" y="-30" width="660" height="510" as="geometry" />
        </mxCell>
        <mxCell id="pdynEuTbUN3bziA-fhCv-2" value="Gestion des tâches" style="text;align=center;fontStyle=1;verticalAlign=middle;spacingLeft=3;spacingRight=3;strokeColor=none;rotatable=0;points=[[0,0.5],[1,0.5]];portConstraint=eastwest;html=1;" parent="1" vertex="1">
          <mxGeometry x="430" width="80" height="26" as="geometry" />
        </mxCell>
        <mxCell id="_FYAPubC0uv6Thobsafv-1" style="rounded=0;orthogonalLoop=1;jettySize=auto;html=1;exitX=0.5;exitY=0.5;exitDx=0;exitDy=0;exitPerimeter=0;entryX=0;entryY=0.5;entryDx=0;entryDy=0;" edge="1" parent="1" source="pdynEuTbUN3bziA-fhCv-4" target="pdynEuTbUN3bziA-fhCv-15">
          <mxGeometry relative="1" as="geometry" />
        </mxCell>
        <mxCell id="pdynEuTbUN3bziA-fhCv-4" value="Elève" style="shape=umlActor;verticalLabelPosition=bottom;verticalAlign=top;html=1;" parent="1" vertex="1">
          <mxGeometry x="70" y="120" width="30" height="60" as="geometry" />
        </mxCell>
        <mxCell id="_FYAPubC0uv6Thobsafv-4" style="rounded=0;orthogonalLoop=1;jettySize=auto;html=1;exitX=0.5;exitY=0.5;exitDx=0;exitDy=0;exitPerimeter=0;" edge="1" parent="1" source="pdynEuTbUN3bziA-fhCv-5" target="_FYAPubC0uv6Thobsafv-2">
          <mxGeometry relative="1" as="geometry" />
        </mxCell>
        <mxCell id="pdynEuTbUN3bziA-fhCv-5" value="Bénévole" style="shape=umlActor;verticalLabelPosition=bottom;verticalAlign=top;html=1;" parent="1" vertex="1">
          <mxGeometry x="70" y="280" width="30" height="60" as="geometry" />
        </mxCell>
        <mxCell id="pdynEuTbUN3bziA-fhCv-15" value="Création d&#39;une nouvelle tâche personnelle" style="ellipse;html=1;whiteSpace=wrap;" parent="1" vertex="1">
          <mxGeometry x="336.42" y="100" width="267.15" height="110" as="geometry" />
        </mxCell>
        <mxCell id="_FYAPubC0uv6Thobsafv-2" value="Création d&#39;une nouvelle pour les élèves en charge" style="ellipse;html=1;whiteSpace=wrap;" vertex="1" parent="1">
          <mxGeometry x="330" y="250" width="267.15" height="110" as="geometry" />
        </mxCell>
      </root>
    </mxGraphModel>
  </diagram>
</mxfile>
